# xmcd
#
# Track frame offsets: 
#        187
#        24979
#        47004
#        66722
#        82107
#        100812
#        116964
#        138022
#        158997
#        173412
#
# Disc length: 2757 seconds
#
# Revision: 2
# Processed by: cddbd v1.5.2PL0 Copyright (c) Steve Scherf et al.
# Submitted via: ExactAudioCopyFreeDBPlugin 1.0
#
DISCID=820ac30a
DTITLE=久松史奈 - oasis
DYEAR=1995
DGENRE=Rock
TTITLE0=FALLING LOVE
TTITLE1=大ッキライだけど愛してる
TTITLE2=子守歌
TTITLE3=ロックンロールが聴こえなくて
TTITLE4=I'm HERE
TTITLE5=WEDDING KISS
TTITLE6=BABY GIRL
TTITLE7=光と影
TTITLE8=CRAZY DOG
TTITLE9=WE ARE ALONE
EXTD=
EXTT0=
EXTT1=
EXTT2=
EXTT3=
EXTT4=
EXTT5=
EXTT6=
EXTT7=
EXTT8=
EXTT9=
PLAYORDER=
